<svg xmlns="http://www.w3.org/2000/svg" xmlns:xlink="http://www.w3.org/1999/xlink" width="35.732" height="33" viewBox="0 0 35.732 33"><defs><filter id="a" x="5.396" y="7.561" width="30.336" height="25.013" filterUnits="userSpaceOnUse"><feOffset dy="3" input="SourceAlpha"/><feGaussianBlur stdDeviation="3" result="b"/><feFlood flood-opacity="0.161"/><feComposite operator="in" in2="b"/><feComposite in="SourceGraphic"/></filter></defs><g transform="translate(-530 -44)"><rect width="33" height="33" rx="16.5" transform="translate(530 44)" fill="#8d7a7a"/><g transform="translate(538.155 53.949)"><g transform="matrix(1, 0, 0, 1, -8.15, -9.95)" filter="url(#a)"><path d="M3.506.438c-.28,0-.632.32-.992.9a11.79,11.79,0,0,0-1.07,2.485A20.748,20.748,0,0,0,.438,8.829a3.068,3.068,0,1,0,6.136,0A20.748,20.748,0,0,0,5.569,3.823,11.79,11.79,0,0,0,4.5,1.338c-.36-.58-.712-.9-.992-.9m0-.438C5.443,0,7.013,6.893,7.013,8.829A3.506,3.506,0,1,1,0,8.829C0,6.893,1.57,0,3.506,0Z" transform="translate(26.73 13.56) rotate(90)" fill="#fff"/></g><path d="M3.612,0C5.687,0,7.223,7.067,7.223,8.935A3.612,3.612,0,1,1,0,8.935C0,7.067,1.537,0,3.612,0Zm0,12.336a3.4,3.4,0,0,0,3.4-3.4C7.013,6.922,5.4.211,3.612.211S.211,6.922.211,8.935A3.4,3.4,0,0,0,3.612,12.336Zm0-11.9c.407,0,.813.517,1.082.95A11.893,11.893,0,0,1,5.774,3.9,20.865,20.865,0,0,1,6.785,8.935a3.173,3.173,0,1,1-6.347,0A20.865,20.865,0,0,1,1.449,3.9,11.892,11.892,0,0,1,2.53,1.388C2.8.955,3.2.438,3.612.438Zm0,11.459A2.966,2.966,0,0,0,6.574,8.935a20.631,20.631,0,0,0-1-4.974A11.688,11.688,0,0,0,4.515,1.5c-.335-.54-.664-.85-.9-.85s-.568.31-.9.85A11.688,11.688,0,0,0,1.65,3.961a20.631,20.631,0,0,0-1,4.974A2.966,2.966,0,0,0,3.612,11.9Z" transform="translate(18.682 3.506) rotate(90)" fill="#fff"/><path d="M6.794.438A6.355,6.355,0,0,0,2.3,11.287,6.355,6.355,0,0,0,11.287,2.3,6.314,6.314,0,0,0,6.794.438m0-.438A6.794,6.794,0,1,1,0,6.794,6.794,6.794,0,0,1,6.794,0Z" transform="translate(13.692 0.105) rotate(90)" fill="#fff"/><path d="M6.9,0A6.9,6.9,0,1,1,0,6.9,6.907,6.907,0,0,1,6.9,0Zm0,13.587A6.688,6.688,0,1,0,.211,6.9,6.7,6.7,0,0,0,6.9,13.587ZM6.9.438a6.461,6.461,0,0,1,4.568,11.029A6.461,6.461,0,0,1,2.331,2.331,6.418,6.418,0,0,1,6.9.438Zm0,12.711A6.25,6.25,0,0,0,11.318,2.48,6.25,6.25,0,1,0,2.48,11.318,6.209,6.209,0,0,0,6.9,13.149Z" transform="translate(13.798) rotate(90)" fill="#fff"/></g></g></svg>