<svg xmlns="http://www.w3.org/2000/svg" xmlns:xlink="http://www.w3.org/1999/xlink" width="100" height="100" viewBox="0 0 100 100"><defs><clipPath id="b"><rect width="100" height="100"/></clipPath></defs><g id="a" clip-path="url(#b)"><g transform="translate(0.802 2.33)"><g transform="translate(17.305 17.531)"><g transform="translate(3.346 23.023)"><path d="M108.6,202.654H68.305a4.322,4.322,0,0,0-4.317,4.317v2.878a27.275,27.275,0,0,0,14.8,24.306,1.44,1.44,0,1,0,1.321-2.559,24.4,24.4,0,0,1-13.245-21.747v-2.878a1.44,1.44,0,0,1,1.439-1.439H108.6a1.44,1.44,0,0,1,1.439,1.439v2.878A24.392,24.392,0,0,1,96.79,231.593a1.44,1.44,0,0,0,.662,2.72,1.419,1.419,0,0,0,.659-.161,27.262,27.262,0,0,0,14.805-24.3v-2.878A4.322,4.322,0,0,0,108.6,202.654Z" transform="translate(-63.988 -202.654)" fill="#fff"/></g><g transform="translate(0 52.159)"><g transform="translate(0 0)"><path d="M55.527,416.8a1.219,1.219,0,0,0-1.117-.836H1.21a1.219,1.219,0,0,0-1.117.836,1.469,1.469,0,0,0,.261,1.475l2.711,3.036a7.986,7.986,0,0,0,5.985,2.774H46.565a8,8,0,0,0,5.99-2.774l2.711-3.036A1.47,1.47,0,0,0,55.527,416.8Zm-4.684,2.6a5.706,5.706,0,0,1-4.275,1.981H9.05A5.706,5.706,0,0,1,4.774,419.4l-.648-.725H51.491Z" transform="translate(0 -415.966)" fill="#fff"/></g></g><g transform="translate(42.62 28.773)"><path d="M373.477,246.318c-3.877-2.492-10.071.213-10.764.527a1.441,1.441,0,1,0,1.194,2.622c1.387-.63,5.837-2.124,8.013-.722.981.63,1.462,1.854,1.462,3.73,0,5.762-11.622,9.245-16.109,10.1l-1.019.2a1.438,1.438,0,0,0,.276,2.849,1.337,1.337,0,0,0,.279-.029l1.01-.2c.754-.144,18.44-3.612,18.44-12.926C376.26,249.579,375.322,247.509,373.477,246.318Z" transform="translate(-355.093 -245.272)" fill="#fff"/></g><g transform="translate(35.007 0)"><path d="M302.674,42.97a8.622,8.622,0,0,0,0-10.428,1.439,1.439,0,0,0-2.248,1.8,5.805,5.805,0,0,1,0,6.836,8.614,8.614,0,0,0,0,10.428,1.439,1.439,0,0,0,2.248-1.8A5.8,5.8,0,0,1,302.674,42.97Z" transform="translate(-298.666 -32.001)" fill="#fff"/></g><g transform="translate(26.363 0.001)"><g transform="translate(0 0)"><path d="M238.6,42.978a8.614,8.614,0,0,0,0-10.428,1.439,1.439,0,0,0-2.248,1.8,5.8,5.8,0,0,1,0,6.836,8.622,8.622,0,0,0,0,10.428,1.439,1.439,0,0,0,2.248-1.8A5.805,5.805,0,0,1,238.6,42.978Z" transform="translate(-234.597 -32.009)" fill="#fff"/></g></g><g transform="translate(17.738 0.003)"><g transform="translate(0 0)"><path d="M174.674,42.991a8.622,8.622,0,0,0,0-10.428,1.439,1.439,0,0,0-2.248,1.8,5.805,5.805,0,0,1,0,6.836,8.614,8.614,0,0,0,0,10.428,1.439,1.439,0,1,0,2.248-1.8A5.8,5.8,0,0,1,174.674,42.991Z" transform="translate(-170.666 -32.022)" fill="#fff"/></g></g></g></g></g></svg>