<svg xmlns="http://www.w3.org/2000/svg" xmlns:xlink="http://www.w3.org/1999/xlink" width="16" height="16" viewBox="0 0 16 16"><defs><clipPath id="b"><rect width="16" height="16"/></clipPath></defs><g id="a" clip-path="url(#b)"><g transform="translate(-14.815 -14.738)"><g transform="translate(17.305 17.531)"><g transform="translate(0.578 3.978)"><path d="M71.7,202.654H64.734a.747.747,0,0,0-.746.746v.5a4.713,4.713,0,0,0,2.558,4.2.249.249,0,1,0,.228-.442,4.216,4.216,0,0,1-2.288-3.757v-.5a.249.249,0,0,1,.249-.249H71.7a.249.249,0,0,1,.249.249v.5a4.215,4.215,0,0,1-2.289,3.757.249.249,0,0,0,.114.47.245.245,0,0,0,.114-.028,4.71,4.71,0,0,0,2.558-4.2v-.5A.747.747,0,0,0,71.7,202.654Z" transform="translate(-63.988 -202.654)"/></g><g transform="translate(0 9.012)"><g transform="translate(0 0)"><path d="M9.594,416.11a.211.211,0,0,0-.193-.144H.209a.211.211,0,0,0-.193.144.254.254,0,0,0,.045.255l.468.525a1.38,1.38,0,0,0,1.034.479H8.045a1.382,1.382,0,0,0,1.035-.479l.468-.525A.254.254,0,0,0,9.594,416.11Zm-.809.449a.986.986,0,0,1-.739.342H1.563a.986.986,0,0,1-.739-.342l-.112-.125H8.9Z" transform="translate(0 -415.966)"/></g></g><g transform="translate(7.364 4.971)"><path d="M358.269,245.453a2.264,2.264,0,0,0-1.86.091.249.249,0,1,0,.206.453c.24-.109,1.008-.367,1.384-.125a.706.706,0,0,1,.253.644c0,1-2.008,1.6-2.783,1.745l-.176.035a.248.248,0,0,0,.048.492.233.233,0,0,0,.048,0l.175-.034c.13-.025,3.186-.624,3.186-2.233A1.173,1.173,0,0,0,358.269,245.453Z" transform="translate(-355.093 -245.272)"/></g><g transform="translate(6.048 0)"><path d="M299.359,33.9a1.49,1.49,0,0,0,0-1.8.249.249,0,1,0-.388.311,1,1,0,0,1,0,1.181,1.488,1.488,0,0,0,0,1.8.249.249,0,0,0,.388-.311A1,1,0,0,1,299.359,33.9Z" transform="translate(-298.666 -32.001)"/></g><g transform="translate(4.555 0)"><g transform="translate(0 0)"><path d="M235.289,33.9a1.488,1.488,0,0,0,0-1.8.249.249,0,1,0-.388.311,1,1,0,0,1,0,1.181,1.49,1.49,0,0,0,0,1.8.249.249,0,0,0,.388-.311A1,1,0,0,1,235.289,33.9Z" transform="translate(-234.597 -32.009)"/></g></g><g transform="translate(3.065 0)"><g transform="translate(0 0)"><path d="M171.359,33.917a1.49,1.49,0,0,0,0-1.8.249.249,0,0,0-.388.31,1,1,0,0,1,0,1.181,1.488,1.488,0,0,0,0,1.8.249.249,0,1,0,.388-.31A1,1,0,0,1,171.359,33.917Z" transform="translate(-170.666 -32.022)"/></g></g></g></g></g></svg>