<svg xmlns="http://www.w3.org/2000/svg" xmlns:xlink="http://www.w3.org/1999/xlink" width="16" height="16" viewBox="0 0 16 16"><defs><clipPath id="b"><rect width="16" height="16"/></clipPath></defs><g id="a" clip-path="url(#b)"><g transform="translate(-24.618 -25.588)"><g transform="translate(28.133 27.738)"><g transform="translate(0 0)"><g transform="translate(0 0)"><path d="M68.564,9.866l-1.031-.311,1.031-.311A.2.2,0,0,0,68.694,9l-.458-1.452a.2.2,0,0,0-.242-.128l-.8.242c.046-.1.09-.2.127-.3a3.578,3.578,0,0,0-.211-2.935,3.757,3.757,0,0,0-.486-.669.2.2,0,0,0-.33.072,1.339,1.339,0,0,1-.811.852,4.613,4.613,0,0,0-.135-2.538A4.2,4.2,0,0,0,63.728.034a.2.2,0,0,0-.3.162,4.044,4.044,0,0,1-.4,2.134,5.154,5.154,0,0,1-.833,1c-.193.2-.394.4-.573.619a3.281,3.281,0,0,0-.433,3.39,3.172,3.172,0,0,0,.193.364l-.938-.282a.2.2,0,0,0-.242.128L59.742,9a.2.2,0,0,0,.13.245l1.031.311-1.031.311a.2.2,0,0,0-.13.245l.458,1.452a.195.195,0,0,0,.242.128l3.775-1.138,3.777,1.138a.195.195,0,0,0,.242-.128l.458-1.453a.2.2,0,0,0-.13-.245ZM61.922,4.194c.168-.206.361-.4.549-.592a5.523,5.523,0,0,0,.892-1.075A3.835,3.835,0,0,0,63.812.584a3.779,3.779,0,0,1,1.164,1.681,4.126,4.126,0,0,1,.053,2.566A.195.195,0,0,0,65.2,5.1a1.442,1.442,0,0,0,1.322-.845,3.35,3.35,0,0,1,.24.364,3.184,3.184,0,0,1,.183,2.611,2.718,2.718,0,0,1-.3.6L65.2,8.261a4.315,4.315,0,0,0-.226-1.373A3.745,3.745,0,0,0,64.129,5.5a.195.195,0,0,0-.335.121,3.385,3.385,0,0,1-.43,1.527,4.79,4.79,0,0,1-.746.925L62,7.887a2.816,2.816,0,0,1-.454-.708A2.888,2.888,0,0,1,61.922,4.194Zm2.889,4.185-.592.178L63.037,8.2a4.626,4.626,0,0,0,.664-.855,3.468,3.468,0,0,0,.43-1.238,3.316,3.316,0,0,1,.476.906A3.923,3.923,0,0,1,64.811,8.378Zm-4.637.55.341-1.081,2.086.629.006,0,.937.282-1.964.592Zm.34,2.335-.34-1.08,7.749-2.335.34,1.08Zm7.408,0-3.029-.913,1.964-.592,1.406.424Z" transform="translate(-59.733 -0.001)"/></g></g></g></g></g></svg>