<svg xmlns="http://www.w3.org/2000/svg" xmlns:xlink="http://www.w3.org/1999/xlink" width="100" height="100" viewBox="0 0 100 100"><defs><clipPath id="b"><rect width="100" height="100"/></clipPath></defs><g id="a" clip-path="url(#b)"><g transform="translate(2.315 3.019)"><g transform="translate(19.133 9.738)"><g transform="translate(0 0)"><g transform="translate(0 0)"><path d="M115.955,62.807l-6.567-1.979,6.567-1.979a1.243,1.243,0,0,0,.827-1.562l-2.913-9.244a1.24,1.24,0,0,0-1.542-.815l-5.121,1.543c.294-.623.57-1.264.809-1.936a22.781,22.781,0,0,0-1.343-18.685,23.922,23.922,0,0,0-3.091-4.256,1.243,1.243,0,0,0-2.1.459c-.065.206-1.484,4.478-5.165,5.423a29.369,29.369,0,0,0-.857-16.16A26.724,26.724,0,0,0,85.168.212a1.242,1.242,0,0,0-1.935,1.033c.013,5.027-.168,9.52-2.537,13.588a32.811,32.811,0,0,1-5.3,6.35c-1.232,1.249-2.506,2.541-3.649,3.942A20.886,20.886,0,0,0,68.989,46.71a20.2,20.2,0,0,0,1.229,2.316l-5.969-1.8a1.239,1.239,0,0,0-1.542.815L59.79,57.291a1.243,1.243,0,0,0,.827,1.562l6.567,1.979-6.566,1.979a1.243,1.243,0,0,0-.827,1.562L62.7,73.618a1.239,1.239,0,0,0,1.542.815l24.034-7.243,24.043,7.243a1.239,1.239,0,0,0,1.542-.815l2.917-9.249a1.243,1.243,0,0,0-.827-1.562ZM73.668,26.694c1.069-1.31,2.3-2.56,3.493-3.768a35.165,35.165,0,0,0,5.681-6.845c2.266-3.89,2.765-7.949,2.856-12.368a24.056,24.056,0,0,1,7.409,10.7c2.454,7.218,1.295,13.843.339,16.337a1.241,1.241,0,0,0,1.123,1.685c4.677.168,7.21-3.159,8.415-5.381a21.327,21.327,0,0,1,1.529,2.32A20.272,20.272,0,0,1,105.676,46a17.308,17.308,0,0,1-1.909,3.807l-9.218,2.778a27.473,27.473,0,0,0-1.438-8.741,23.84,23.84,0,0,0-5.392-8.824,1.241,1.241,0,0,0-2.135.767,21.551,21.551,0,0,1-2.74,9.721A30.493,30.493,0,0,1,78.092,51.4l-3.947-1.189a17.929,17.929,0,0,1-2.888-4.51A18.388,18.388,0,0,1,73.668,26.694ZM92.06,53.335l-3.767,1.135L80.764,52.2a29.448,29.448,0,0,0,4.226-5.446,22.076,22.076,0,0,0,2.74-7.882,21.115,21.115,0,0,1,3.031,5.768A24.975,24.975,0,0,1,92.06,53.335Zm-29.523,3.5,2.17-6.881,13.281,4c.012,0,.024.006.035.011l5.966,1.8-12.5,3.769ZM64.7,71.7l-2.168-6.876,49.332-14.868,2.168,6.876Zm47.161,0L92.582,65.893l12.5-3.769,8.949,2.7Z" transform="translate(-59.733 -0.001)"/></g></g></g></g></g></svg>