<svg xmlns="http://www.w3.org/2000/svg" xmlns:xlink="http://www.w3.org/1999/xlink" width="100" height="100" viewBox="0 0 100 100"><defs><clipPath id="b"><rect width="100" height="100"/></clipPath></defs><g id="a" clip-path="url(#b)"><g transform="translate(9.031 18.439)"><g transform="translate(2.556 4.561)"><path d="M74.282,66.856a36.6,36.6,0,0,1-8.832.291,75.324,75.324,0,0,1-22.523-5.377c18.331-6.628,31.228-4.168,31.364-4.141a1.045,1.045,0,1,0,.418-2.048,48.859,48.859,0,0,0-13.434-.219V41.826a19.948,19.948,0,0,0,7.4,1.366,21.813,21.813,0,0,0,6.15-.844,1.044,1.044,0,0,0,.358-1.791,40.844,40.844,0,0,1-7.613-9.089,15.524,15.524,0,0,0,4.613.525,1.045,1.045,0,0,0,.524-1.907c-3.553-2.415-6.407-6.419-8.07-9.129a15.569,15.569,0,0,0,5.051.466,1.045,1.045,0,0,0,.494-1.9C62.416,14.2,59.042,5.328,59.009,5.241a1.046,1.046,0,0,0-.979-.68h0a1.045,1.045,0,0,0-.98.68c-.033.089-3.387,8.945-11.172,14.281a1.045,1.045,0,0,0,.494,1.9,15.588,15.588,0,0,0,5.053-.467c-1.661,2.708-4.513,6.71-8.072,9.129a1.045,1.045,0,0,0,.524,1.9,15.556,15.556,0,0,0,4.613-.525,40.834,40.834,0,0,1-7.6,9.09,1.045,1.045,0,0,0,.358,1.791,21.852,21.852,0,0,0,13.548-.523V56.311a83.652,83.652,0,0,0-14.742,4.308,83.621,83.621,0,0,0-14.741-4.31V41.825a21.858,21.858,0,0,0,13.548.523,1.045,1.045,0,0,0,.358-1.791,40.834,40.834,0,0,1-7.606-9.089,15.486,15.486,0,0,0,4.613.525,1.045,1.045,0,0,0,.524-1.907c-3.553-2.415-6.407-6.419-8.07-9.129a15.568,15.568,0,0,0,5.051.466,1.045,1.045,0,0,0,.494-1.9C26.457,14.2,23.082,5.328,23.049,5.241a1.046,1.046,0,0,0-1.958,0c-.033.09-3.408,8.961-11.172,14.282a1.045,1.045,0,0,0,.494,1.9,15.589,15.589,0,0,0,5.053-.467c-1.662,2.708-4.513,6.71-8.072,9.129a1.045,1.045,0,0,0,.524,1.907,15.548,15.548,0,0,0,4.614-.525,40.794,40.794,0,0,1-7.606,9.087,1.044,1.044,0,0,0,.358,1.791,21.8,21.8,0,0,0,6.15.844,19.962,19.962,0,0,0,7.4-1.366V55.36A48.849,48.849,0,0,0,5.4,55.58a1.045,1.045,0,1,0,.415,2.048c.145-.029,14.748-2.819,34.98,5.536,12.5,5.163,22.194,6.2,27.962,6.2a31.049,31.049,0,0,0,5.964-.465,1.045,1.045,0,1,0-.432-2.045ZM43.751,40.773A46.857,46.857,0,0,0,51.96,29.652a1.045,1.045,0,0,0-1.534-1.326,8.671,8.671,0,0,1-3.2,1.3A40.7,40.7,0,0,0,54.91,19,1.045,1.045,0,0,0,53.3,17.746a7.489,7.489,0,0,1-3.6,1.452A36.16,36.16,0,0,0,58.03,8.175,36.156,36.156,0,0,0,66.366,19.2a7.5,7.5,0,0,1-3.6-1.452A1.045,1.045,0,0,0,61.149,19a40.639,40.639,0,0,0,7.686,10.628,8.672,8.672,0,0,1-3.2-1.3A1.045,1.045,0,0,0,64.1,29.654a46.864,46.864,0,0,0,8.213,11.124c-2.918.5-8.731.85-13.664-2.771a1.046,1.046,0,0,0-1.237,0C52.495,41.614,46.672,41.266,43.751,40.773Zm13.13.052c.385-.217.769-.447,1.149-.7.38.254.764.485,1.149.7V55.6q-1.117.145-2.3.337ZM7.791,40.773A46.856,46.856,0,0,0,16,29.652a1.045,1.045,0,0,0-1.535-1.326,8.664,8.664,0,0,1-3.2,1.3A40.7,40.7,0,0,0,18.951,19a1.045,1.045,0,0,0-1.612-1.254,7.491,7.491,0,0,1-3.6,1.452A36.156,36.156,0,0,0,22.069,8.175,36.16,36.16,0,0,0,30.406,19.2a7.5,7.5,0,0,1-3.6-1.452A1.045,1.045,0,0,0,25.19,19a40.677,40.677,0,0,0,7.682,10.623,8.667,8.667,0,0,1-3.2-1.3,1.045,1.045,0,0,0-1.534,1.326,46.863,46.863,0,0,0,8.212,11.124c-2.917.5-8.731.85-13.664-2.771a1.046,1.046,0,0,0-1.237,0C16.535,41.614,10.712,41.266,7.791,40.773Zm13.129.053c.386-.217.769-.447,1.149-.7.38.254.764.484,1.149.7V55.939c-.787-.128-1.552-.242-2.3-.339Z" transform="translate(-4.556 -4.561)"/></g></g><path d="M12.043,21.962c-.1,0-.208,0-.311,0A10,10,0,0,1,11.118,2a1,1,0,0,1,.9,1.59,6,6,0,0,0,8.391,8.391,1,1,0,0,1,1.59.9,10,10,0,0,1-9.953,9.08ZM9.317,4.439a8,8,0,0,0,2.476,15.519c.083,0,.167,0,.25,0a7.955,7.955,0,0,0,7.524-5.277A8,8,0,0,1,9.317,4.439Z" transform="translate(33.336 5.5)"/></g></svg>