<svg xmlns="http://www.w3.org/2000/svg" xmlns:xlink="http://www.w3.org/1999/xlink" width="16" height="16" viewBox="0 0 16 16"><defs><clipPath id="b"><rect width="16" height="16"/></clipPath></defs><g id="a" clip-path="url(#b)"><g transform="translate(-9.769 -6.493)"><g transform="translate(11.587 9.793)"><g transform="translate(0 0)"><path d="M14.871,13.776a5.413,5.413,0,0,1-1.306.043,11.142,11.142,0,0,1-3.332-.8,9.528,9.528,0,0,1,4.639-.613.155.155,0,1,0,.062-.3,7.227,7.227,0,0,0-1.987-.032v-2a2.951,2.951,0,0,0,1.095.2,3.227,3.227,0,0,0,.91-.125A.154.154,0,0,0,15,9.886a6.042,6.042,0,0,1-1.126-1.344,2.3,2.3,0,0,0,.682.078.155.155,0,0,0,.078-.282,4.572,4.572,0,0,1-1.194-1.35,2.3,2.3,0,0,0,.747.069.155.155,0,0,0,.073-.281,5,5,0,0,1-1.653-2.112.155.155,0,0,0-.145-.1h0a.155.155,0,0,0-.145.1,4.981,4.981,0,0,1-1.653,2.112.155.155,0,0,0,.073.281,2.306,2.306,0,0,0,.747-.069A4.566,4.566,0,0,1,10.3,8.337a.155.155,0,0,0,.078.282,2.3,2.3,0,0,0,.682-.078A6.04,6.04,0,0,1,9.93,9.886a.155.155,0,0,0,.053.265,3.233,3.233,0,0,0,2-.077v2.143a12.374,12.374,0,0,0-2.181.637,12.37,12.37,0,0,0-2.181-.638V10.073a3.233,3.233,0,0,0,2,.077.155.155,0,0,0,.053-.265A6.04,6.04,0,0,1,8.558,8.541a2.291,2.291,0,0,0,.682.078.155.155,0,0,0,.078-.282,4.572,4.572,0,0,1-1.194-1.35,2.3,2.3,0,0,0,.747.069.155.155,0,0,0,.073-.281A5,5,0,0,1,7.292,4.662a.155.155,0,0,0-.29,0A5,5,0,0,1,5.35,6.774a.155.155,0,0,0,.073.281,2.306,2.306,0,0,0,.747-.069,4.567,4.567,0,0,1-1.194,1.35.155.155,0,0,0,.078.282,2.3,2.3,0,0,0,.683-.078A6.034,6.034,0,0,1,4.611,9.886a.154.154,0,0,0,.053.265,3.225,3.225,0,0,0,.91.125,2.953,2.953,0,0,0,1.095-.2v2a7.226,7.226,0,0,0-1.987.033.155.155,0,1,0,.061.3,9.83,9.83,0,0,1,5.174.819,10.939,10.939,0,0,0,4.136.917,4.593,4.593,0,0,0,.882-.069.155.155,0,1,0-.064-.3ZM10.354,9.918a6.931,6.931,0,0,0,1.214-1.645.155.155,0,0,0-.227-.2,1.283,1.283,0,0,1-.473.192A6.02,6.02,0,0,0,12,6.7a.155.155,0,0,0-.238-.185,1.108,1.108,0,0,1-.533.215A5.349,5.349,0,0,0,12.466,5.1,5.348,5.348,0,0,0,13.7,6.726a1.109,1.109,0,0,1-.533-.215.155.155,0,0,0-.238.185,6.012,6.012,0,0,0,1.137,1.572,1.283,1.283,0,0,1-.473-.193.155.155,0,0,0-.227.2,6.932,6.932,0,0,0,1.215,1.646,2.683,2.683,0,0,1-2.021-.41.155.155,0,0,0-.183,0A2.691,2.691,0,0,1,10.354,9.918Zm1.942.008c.057-.032.114-.066.17-.1.056.038.113.072.17.1v2.186q-.165.021-.34.05ZM5.035,9.918A6.931,6.931,0,0,0,6.249,8.273a.155.155,0,0,0-.227-.2,1.282,1.282,0,0,1-.473.192A6.02,6.02,0,0,0,6.686,6.7a.155.155,0,0,0-.238-.185,1.108,1.108,0,0,1-.533.215A5.348,5.348,0,0,0,7.147,5.1,5.349,5.349,0,0,0,8.38,6.726a1.109,1.109,0,0,1-.533-.215.155.155,0,0,0-.238.185A6.017,6.017,0,0,0,8.745,8.268a1.282,1.282,0,0,1-.473-.192.155.155,0,0,0-.227.2A6.932,6.932,0,0,0,9.26,9.918a2.683,2.683,0,0,1-2.021-.41.155.155,0,0,0-.183,0A2.69,2.69,0,0,1,5.035,9.918Zm1.942.008c.057-.032.114-.066.17-.1.056.038.113.072.17.1v2.236c-.116-.019-.23-.036-.34-.05Z" transform="translate(-4.556 -4.561)"/></g></g><path d="M3.518,4.953H3.472A1.479,1.479,0,0,1,3.381,2a.148.148,0,0,1,.133.235A.888.888,0,0,0,4.755,3.477a.148.148,0,0,1,.235.133A1.479,1.479,0,0,1,3.518,4.953Zm-.4-2.592a1.183,1.183,0,0,0,.366,2.3h.037a1.177,1.177,0,0,0,1.113-.781A1.184,1.184,0,0,1,3.115,2.361Z" transform="translate(13.067 5.5)"/></g></g></svg>