<svg xmlns="http://www.w3.org/2000/svg" xmlns:xlink="http://www.w3.org/1999/xlink" width="16" height="16" viewBox="0 0 16 16"><defs><clipPath id="b"><rect width="16" height="16"/></clipPath></defs><g id="a" clip-path="url(#b)"><g transform="translate(13.441 -17.557)"><g transform="translate(-11.002 20.015)"><g transform="translate(0 0)"><path d="M358.429,192.111h.686a.208.208,0,0,0,0-.416h-.686a1.934,1.934,0,0,1-1.932-1.932.6.6,0,0,1,1.206,0,.208.208,0,0,0,.4.07,1.909,1.909,0,0,0-.447-1.981,2.317,2.317,0,0,0-.64-.453.208.208,0,0,0-.179.375,1.9,1.9,0,0,1,.525.372,1.487,1.487,0,0,1,.422.867,1.018,1.018,0,0,0-1.707.75A2.35,2.35,0,0,0,358.429,192.111Z" transform="translate(-348.679 -183.899)"/><path d="M1.067,27.811H.208a.208.208,0,0,0,0,.416h.859a4.594,4.594,0,0,0,2.669-.847,4.633,4.633,0,0,0,1.139-1.151A2.838,2.838,0,0,0,5.7,28a.208.208,0,0,0,.294-.294,2.438,2.438,0,0,1,0-3.444,1.9,1.9,0,0,1,.525-.372.208.208,0,1,0-.179-.375,2.318,2.318,0,0,0-.64.453,2.845,2.845,0,0,0-.454.592A2.093,2.093,0,0,1,4.3,22.8a.671.671,0,0,1,1.341,0,.208.208,0,0,0,.4.07,2.051,2.051,0,0,0-.479-2.127,2.5,2.5,0,0,0-3.533,0,3.058,3.058,0,0,0-.745,1.2A4.6,4.6,0,0,1,.069,23.74a.208.208,0,0,0,.278.309,5.013,5.013,0,0,0,.8-.917,3.048,3.048,0,0,0,.892,1.957.208.208,0,0,0,.294-.294,2.655,2.655,0,0,1,0-3.754,2.082,2.082,0,0,1,2.945,0,1.629,1.629,0,0,1,.467,1,1.086,1.086,0,0,0-1.854.767,2.523,2.523,0,0,0,1.174,2.133c-.017.043-.032.086-.047.13a4.228,4.228,0,0,1-3.948,2.743Z" transform="translate(0 -20.015)"/><path d="M10.581,443.264a.208.208,0,0,0-.294,0,.826.826,0,0,1-1.167,0,1.243,1.243,0,0,0-1.755,0,.826.826,0,0,1-1.167,0,1.241,1.241,0,0,0-1.755,0,.826.826,0,0,1-1.167,0,1.241,1.241,0,0,0-1.755,0,.826.826,0,0,1-1.167,0,.208.208,0,0,0-.294.294,1.243,1.243,0,0,0,1.755,0,.825.825,0,0,1,1.167,0,1.243,1.243,0,0,0,1.755,0,.825.825,0,0,1,1.167,0,1.243,1.243,0,0,0,1.755,0,.826.826,0,0,1,1.167,0,1.243,1.243,0,0,0,1.755,0,.208.208,0,0,0,0-.294Z" transform="translate(0.002 -434.11)"/><path d="M10.581,443.264a.208.208,0,0,0-.294,0,.826.826,0,0,1-1.167,0,1.243,1.243,0,0,0-1.755,0,.826.826,0,0,1-1.167,0,1.241,1.241,0,0,0-1.755,0,.826.826,0,0,1-1.167,0,1.241,1.241,0,0,0-1.755,0,.826.826,0,0,1-1.167,0,.208.208,0,0,0-.294.294,1.243,1.243,0,0,0,1.755,0,.825.825,0,0,1,1.167,0,1.243,1.243,0,0,0,1.755,0,.825.825,0,0,1,1.167,0,1.243,1.243,0,0,0,1.755,0,.826.826,0,0,1,1.167,0,1.243,1.243,0,0,0,1.755,0,.208.208,0,0,0,0-.294Z" transform="translate(0.479 -432.838)"/><path d="M13.807,20.786a2.11,2.11,0,0,0-3.221.038c-.315.364.272-.028.6-.038a2.1,2.1,0,0,1,1.021-.3,2.243,2.243,0,0,1,.956.24C13.347,20.792,14.314,21.372,13.807,20.786Z" transform="translate(-4.876 -16.809)"/></g></g></g></g></svg>