<svg xmlns="http://www.w3.org/2000/svg" xmlns:xlink="http://www.w3.org/1999/xlink" width="100" height="100" viewBox="0 0 100 100"><defs><clipPath id="b"><rect width="100" height="100"/></clipPath></defs><g id="a" clip-path="url(#b)"><g transform="translate(28.263 -2.643)"><g transform="translate(-11.002 20.015)"><g transform="translate(0 0)"><path d="M369.9,215.241h4.039a1.224,1.224,0,1,0,0-2.448H369.9A11.386,11.386,0,0,1,358.53,201.42a3.551,3.551,0,0,1,7.1,0,1.224,1.224,0,0,0,2.377.41,11.241,11.241,0,0,0-2.629-11.662,13.643,13.643,0,0,0-3.767-2.669,1.224,1.224,0,0,0-1.056,2.208,11.2,11.2,0,0,1,3.092,2.192,8.757,8.757,0,0,1,2.486,5.1,6,6,0,0,0-10.053,4.418A13.837,13.837,0,0,0,369.9,215.241Z" transform="translate(-312.497 -166.893)"/><path d="M6.282,65.915H1.224a1.224,1.224,0,1,0,0,2.448H6.282a27.049,27.049,0,0,0,15.712-4.989A27.278,27.278,0,0,0,28.7,56.6a16.706,16.706,0,0,0,4.845,10.43A1.224,1.224,0,1,0,35.277,65.3a14.353,14.353,0,0,1,0-20.276,11.2,11.2,0,0,1,3.093-2.192,1.224,1.224,0,1,0-1.056-2.208,13.645,13.645,0,0,0-3.767,2.67,16.749,16.749,0,0,0-2.673,3.485,12.325,12.325,0,0,1-5.535-10.337,3.948,3.948,0,0,1,7.9,0,1.224,1.224,0,0,0,2.377.41,12.073,12.073,0,0,0-2.823-12.525,14.707,14.707,0,0,0-20.8,0A18,18,0,0,0,7.6,31.414a27.08,27.08,0,0,1-7.2,10.531,1.224,1.224,0,0,0,1.638,1.819,29.512,29.512,0,0,0,4.694-5.4,17.944,17.944,0,0,0,5.251,11.525,1.224,1.224,0,0,0,1.731-1.731,15.63,15.63,0,0,1,0-22.1,12.259,12.259,0,0,1,17.337,0,9.594,9.594,0,0,1,2.752,5.866A6.393,6.393,0,0,0,22.89,36.437,14.853,14.853,0,0,0,29.8,49c-.1.253-.191.508-.278.764A24.9,24.9,0,0,1,6.282,65.915Z" transform="translate(0 -20.015)"/><path d="M62.309,445.041a1.224,1.224,0,0,0-1.731,0,4.865,4.865,0,0,1-6.872,0,7.316,7.316,0,0,0-10.334,0,4.865,4.865,0,0,1-6.872,0,7.307,7.307,0,0,0-10.334,0,4.865,4.865,0,0,1-6.872,0,7.308,7.308,0,0,0-10.334,0,4.865,4.865,0,0,1-6.872,0,1.224,1.224,0,0,0-1.731,1.731,7.316,7.316,0,0,0,10.334,0,4.859,4.859,0,0,1,6.872,0,7.316,7.316,0,0,0,10.334,0,4.859,4.859,0,0,1,6.872,0,7.316,7.316,0,0,0,10.334,0,4.865,4.865,0,0,1,6.872,0,7.316,7.316,0,0,0,10.334,0,1.224,1.224,0,0,0,0-1.731Z" transform="translate(0.002 -391.14)"/><path d="M62.309,445.041a1.224,1.224,0,0,0-1.731,0,4.865,4.865,0,0,1-6.872,0,7.316,7.316,0,0,0-10.334,0,4.865,4.865,0,0,1-6.872,0,7.307,7.307,0,0,0-10.334,0,4.865,4.865,0,0,1-6.872,0,7.308,7.308,0,0,0-10.334,0,4.865,4.865,0,0,1-6.872,0,1.224,1.224,0,0,0-1.731,1.731,7.316,7.316,0,0,0,10.334,0,4.859,4.859,0,0,1,6.872,0,7.316,7.316,0,0,0,10.334,0,4.859,4.859,0,0,1,6.872,0,7.316,7.316,0,0,0,10.334,0,4.865,4.865,0,0,1,6.872,0,7.316,7.316,0,0,0,10.334,0,1.224,1.224,0,0,0,0-1.731Z" transform="translate(2.81 -383.653)"/><path d="M29.99,24.345c-.906-2.064-5.838-4.286-9.437-4.286a12.506,12.506,0,0,0-9.526,4.508c-1.856,2.14,1.6-.167,3.518-.222,1.713-.729,3.009-1.743,6.009-1.743a13.206,13.206,0,0,1,5.631,1.413C27.284,24.38,32.977,27.79,29.99,24.345Z" transform="translate(22.591 -0.926)"/></g></g></g></g></svg>