<svg xmlns="http://www.w3.org/2000/svg" xmlns:xlink="http://www.w3.org/1999/xlink" width="16" height="16" viewBox="0 0 16 16"><defs><clipPath id="b"><rect width="16" height="16"/></clipPath></defs><g id="a" clip-path="url(#b)"><g transform="translate(-14.106 2.044)"><path d="M26.129,1.662a5.554,5.554,0,0,0-3.4-1.247V.193a.193.193,0,0,0-.386,0V.415a5.553,5.553,0,0,0-3.4,1.247A3.976,3.976,0,0,0,17.43,4.721a.193.193,0,0,0,.323.143,2.346,2.346,0,0,1,1.507-.449,2.346,2.346,0,0,1,1.507.449.193.193,0,0,0,.26,0A2.211,2.211,0,0,1,22.34,4.42V9.467h-.654l-.606-.849H21.5a.193.193,0,0,0,0-.386H18.669l-1-1.393a.6.6,0,0,0-.984.7l2.058,2.881a.6.6,0,0,0,.085.095l-.195,1.168a.193.193,0,0,0,.159.222l.032,0a.193.193,0,0,0,.19-.161l.179-1.075.042,0h3.1v1.042a.193.193,0,1,0,.386,0V10.676h3.76l.179,1.074a.193.193,0,0,0,.19.161l.032,0a.193.193,0,0,0,.159-.222l-.168-1.011a.6.6,0,0,0-.022-1.209H22.726V4.42a2.21,2.21,0,0,1,1.314.444.193.193,0,0,0,.26,0,2.75,2.75,0,0,1,3.013,0,.193.193,0,0,0,.323-.143A3.976,3.976,0,0,0,26.129,1.662ZM20.6,8.618l.606.849H19.551l-.606-.849Zm6.468,1.454a.219.219,0,0,1-.219.219H19.24a.219.219,0,0,1-.178-.092L17,7.318a.219.219,0,0,1,.177-.346.224.224,0,0,1,.036,0,.217.217,0,0,1,.142.089l1.935,2.709a.193.193,0,0,0,.157.081h7.4A.219.219,0,0,1,27.073,10.072Zm-3.563-8.2a7.538,7.538,0,0,1,.46,2.475,3.374,3.374,0,0,0-2.876,0,7.538,7.538,0,0,1,.46-2.475c.274-.684.63-1.077.978-1.077S23.237,1.19,23.511,1.874ZM17.838,4.341A4.312,4.312,0,0,1,21.7.859a3.1,3.1,0,0,0-.5.872,7.948,7.948,0,0,0-.488,2.625,3.378,3.378,0,0,0-2.871-.015Zm7.969-.313a3.079,3.079,0,0,0-1.449.328,7.949,7.949,0,0,0-.488-2.625,3.1,3.1,0,0,0-.5-.872,4.312,4.312,0,0,1,3.86,3.481A3.11,3.11,0,0,0,25.806,4.028Z" transform="translate(0)"/></g></g></svg>