<svg xmlns="http://www.w3.org/2000/svg" xmlns:xlink="http://www.w3.org/1999/xlink" width="16" height="16" viewBox="0 0 16 16"><defs><clipPath id="b"><rect width="16" height="16"/></clipPath></defs><g id="a" clip-path="url(#b)"><g transform="translate(-11.85 -10.922)"><g transform="translate(14.612 13.811)"><path d="M7.309,12.34h7.2a1.964,1.964,0,0,0,1.071-3.611,2.483,2.483,0,0,0,.021-.317A2.618,2.618,0,0,0,10.529,7.5,2.182,2.182,0,0,0,7.091,9.285a2.144,2.144,0,0,0,.048.448,1.31,1.31,0,0,0,.171,2.608Zm0-2.182a.4.4,0,0,1,.053.005l.389.044-.119-.33a1.744,1.744,0,0,1,2.859-1.842l.279.272.086-.38a2.181,2.181,0,0,1,4.272.874l-.028.155.139.075a1.528,1.528,0,0,1-.728,2.871h-7.2a.873.873,0,0,1,0-1.746Z" transform="translate(-6 -5.793)"/><rect width="0.444" height="1.272" rx="0.222" transform="translate(1.028 7.171) rotate(45)"/><rect width="0.444" height="1.272" rx="0.222" transform="translate(3.206 7.171) rotate(45)"/><rect width="0.444" height="1.272" rx="0.222" transform="translate(5.383 7.171) rotate(45)"/><rect width="0.444" height="1.272" rx="0.222" transform="translate(7.561 7.171) rotate(45)"/><rect width="0.444" height="1.272" rx="0.222" transform="translate(9.738 7.171) rotate(45)"/><rect width="0.444" height="1.272" rx="0.222" transform="translate(1.768 9.008) rotate(45)"/><rect width="0.444" height="1.272" rx="0.222" transform="translate(3.893 9.008) rotate(45)"/><rect width="0.444" height="1.272" rx="0.222" transform="translate(6.018 9.008) rotate(45)"/><rect width="0.444" height="1.272" rx="0.222" transform="translate(8.143 9.008) rotate(45)"/></g></g></g></svg>