<svg xmlns="http://www.w3.org/2000/svg" xmlns:xlink="http://www.w3.org/1999/xlink" width="100" height="100" viewBox="0 0 100 100"><defs><clipPath id="b"><rect width="100" height="100"/></clipPath></defs><g id="a" clip-path="url(#b)"><g transform="translate(3.793 5.36)"><g transform="translate(14.612 13.811)"><path d="M13.9,45.286H57.341A11.849,11.849,0,0,0,63.8,23.5a14.976,14.976,0,0,0,.125-1.914,15.794,15.794,0,0,0-30.6-5.5A13.161,13.161,0,0,0,12.582,26.856a12.933,12.933,0,0,0,.287,2.7A7.9,7.9,0,0,0,13.9,45.286Zm0-13.164a2.386,2.386,0,0,1,.321.033l2.349.265-.717-1.988A10.521,10.521,0,0,1,33.1,19.321l1.683,1.642L35.3,18.67a13.153,13.153,0,0,1,25.768,5.274l-.171.937.837.454a9.216,9.216,0,0,1-4.393,17.318H13.9a5.266,5.266,0,0,1,0-10.532Z" transform="translate(-6 -5.793)" fill="#fff"/><rect width="2.678" height="7.676" rx="1.339" transform="translate(6.201 43.254) rotate(45)" fill="#fff"/><rect width="2.678" height="7.676" rx="1.339" transform="translate(19.336 43.254) rotate(45)" fill="#fff"/><rect width="2.678" height="7.676" rx="1.339" transform="translate(32.472 43.254) rotate(45)" fill="#fff"/><rect width="2.678" height="7.676" rx="1.339" transform="translate(45.607 43.254) rotate(45)" fill="#fff"/><rect width="2.678" height="7.676" rx="1.339" transform="translate(58.743 43.254) rotate(45)" fill="#fff"/><rect width="2.678" height="7.676" rx="1.339" transform="translate(10.665 54.336) rotate(45)" fill="#fff"/><rect width="2.678" height="7.676" rx="1.339" transform="translate(23.483 54.336) rotate(45)" fill="#fff"/><rect width="2.678" height="7.676" rx="1.339" transform="translate(36.302 54.336) rotate(45)" fill="#fff"/><rect width="2.678" height="7.676" rx="1.339" transform="translate(49.121 54.336) rotate(45)" fill="#fff"/></g></g></g></svg>