<svg xmlns="http://www.w3.org/2000/svg" width="16" height="16" viewBox="0 0 16 16"><g transform="translate(-0.25 -0.25)"><path d="M3.348-.75a4.1,4.1,0,1,1-4.1,4.1A4.1,4.1,0,0,1,3.348-.75Zm0,7.128A3.029,3.029,0,1,0,.319,3.348,3.033,3.033,0,0,0,3.348,6.378Z" transform="translate(4.902 4.902)"/><path d="M-.215,1.745A.535.535,0,0,1-.75,1.21V-.215A.535.535,0,0,1-.215-.75a.535.535,0,0,1,.535.535V1.21A.535.535,0,0,1-.215,1.745Z" transform="translate(8.465 1)"/><path d="M-.215,1.745A.535.535,0,0,1-.75,1.21V-.215A.535.535,0,0,1-.215-.75a.535.535,0,0,1,.535.535V1.21A.535.535,0,0,1-.215,1.745Z" transform="translate(8.465 14.505)"/><path d="M.8,1.331a.533.533,0,0,1-.378-.157L-.593.163a.535.535,0,0,1,0-.756.535.535,0,0,1,.756,0L1.175.419A.535.535,0,0,1,.8,1.331Z" transform="translate(3.295 3.295)"/><path d="M.8,1.331a.533.533,0,0,1-.378-.157L-.593.163a.535.535,0,0,1,0-.756.535.535,0,0,1,.756,0L1.175.419A.535.535,0,0,1,.8,1.331Z" transform="translate(12.624 12.624)"/><path d="M1.21.319H-.215A.535.535,0,0,1-.75-.215.535.535,0,0,1-.215-.75H1.21a.535.535,0,0,1,.535.535A.535.535,0,0,1,1.21.319Z" transform="translate(1 8.465)"/><path d="M1.21.319H-.215A.535.535,0,0,1-.75-.215.535.535,0,0,1-.215-.75H1.21a.535.535,0,0,1,.535.535A.535.535,0,0,1,1.21.319Z" transform="translate(14.505 8.465)"/><path d="M-.215,1.331a.533.533,0,0,1-.378-.157.535.535,0,0,1,0-.756L.419-.593a.535.535,0,0,1,.756,0,.535.535,0,0,1,0,.756L.163,1.175A.533.533,0,0,1-.215,1.331Z" transform="translate(3.295 12.624)"/><path d="M-.215,1.331a.533.533,0,0,1-.378-.157.535.535,0,0,1,0-.756L.419-.593a.535.535,0,0,1,.756,0,.535.535,0,0,1,0,.756L.163,1.175A.533.533,0,0,1-.215,1.331Z" transform="translate(12.624 3.295)"/></g></svg>