<svg opacity="0.3" xmlns="http://www.w3.org/2000/svg" width="54.945" height="13.561"  viewBox="0 0 54.945 13.561"><g transform="translate(0.5 0)"><g transform="translate(0 1)"><path d="M53.945,13.06c-3.659,0-5.445-3.06-7.175-6.028C45.111,4.187,43.543,1.5,40.459,1.5c-2.993,0-4.565,2.665-6.228,5.486a21.435,21.435,0,0,1-2.858,4.1,5.945,5.945,0,0,1-4.4,1.975c-3.659,0-5.446-3.064-7.175-6.028C18.138,4.187,16.571,1.5,13.486,1.5c-3.049,0-4.56,2.644-6.16,5.443a20.394,20.394,0,0,1-2.82,4.127A6.05,6.05,0,0,1,0,13.06v-1c3.25,0,4.808-2.726,6.458-5.613C8.129,3.523,9.857.5,13.486.5c3.659,0,5.446,3.064,7.175,6.028,1.659,2.845,3.227,5.532,6.311,5.532,3.1,0,4.7-2.711,6.4-5.582C35.1,3.539,36.894.5,40.459.5c3.659,0,5.446,3.064,7.175,6.028,1.659,2.845,3.227,5.532,6.311,5.532Z" transform="translate(0 -1)"/><path d="M26.975,13.561h0a6.313,6.313,0,0,1-4.667-2.051,21.13,21.13,0,0,1-2.939-4.224C17.712,4.449,16.284,2,13.486,2,10.73,2,9.355,4.4,7.765,7.182A20.913,20.913,0,0,1,4.881,11.4l0,0A6.562,6.562,0,0,1,.021,13.56l-.521,0v-2H0c2.96,0,4.38-2.484,6.024-5.361A20.423,20.423,0,0,1,8.88,2.028,6.192,6.192,0,0,1,13.486,0a6.313,6.313,0,0,1,4.667,2.051,21.13,21.13,0,0,1,2.939,4.224c1.654,2.836,3.082,5.285,5.88,5.285s4.27-2.466,5.961-5.322l.009-.015A21.288,21.288,0,0,1,35.87,2.036,6.217,6.217,0,0,1,40.459,0a6.313,6.313,0,0,1,4.667,2.051,21.13,21.13,0,0,1,2.939,4.224c1.654,2.836,3.082,5.285,5.88,5.285h.5v2h-.5a6.314,6.314,0,0,1-4.667-2.05,21.093,21.093,0,0,1-2.94-4.226C44.685,4.449,43.257,2,40.459,2a4.331,4.331,0,0,0-3.251,1.531,20.389,20.389,0,0,0-2.541,3.7,21.963,21.963,0,0,1-2.92,4.187A6.458,6.458,0,0,1,26.975,13.561ZM21.284,8.54c1.412,2.233,3,4.02,5.687,4.021q.094,0,.187,0-.092,0-.186,0a5.427,5.427,0,0,1-4.051-1.853A13.7,13.7,0,0,1,21.284,8.54ZM40.464,1A5.428,5.428,0,0,1,44.51,2.853,20.727,20.727,0,0,1,47.2,6.78c1.645,2.822,3.2,5.495,6.243,5.759h0a5.509,5.509,0,0,1-3.551-1.831A20.727,20.727,0,0,1,47.2,6.78C45.469,3.809,43.832,1,40.464,1Zm-9.446,9.733a6.173,6.173,0,0,1-2.091,1.454A5.449,5.449,0,0,0,31,10.752ZM4.085,10.79a6.157,6.157,0,0,1-1.879,1.321A5.553,5.553,0,0,0,4.085,10.79ZM33.772,6.783c-.426.72-.841,1.419-1.275,2.071A20.953,20.953,0,0,0,33.772,6.783ZM6.884,6.71c-.4.708-.8,1.4-1.213,2.041A19.9,19.9,0,0,0,6.882,6.714ZM13.481,1C10.667,1,9.1,2.97,7.678,5.343A14.4,14.4,0,0,1,9.5,2.827,5.305,5.305,0,0,1,13.481,1Zm.009,0a5.428,5.428,0,0,1,4.046,1.853,14.424,14.424,0,0,1,1.784,2.4C17.872,2.915,16.271,1,13.491,1ZM40.428,1a4.909,4.909,0,0,0-2.127.482A4.923,4.923,0,0,1,40.428,1Z" transform="translate(0 -1)"/></g></g></svg>