<svg xmlns="http://www.w3.org/2000/svg" width="53.945" height="12.56" viewBox="0 0 53.945 12.56"><g transform="translate(0 -0.5)"><g transform="translate(0 1)"><path d="M53.945,13.06C50.286,13.06,48.5,10,46.77,7.032,45.111,4.187,43.543,1.5,40.459,1.5c-2.993,0-4.565,2.665-6.228,5.486a21.435,21.435,0,0,1-2.858,4.1,5.945,5.945,0,0,1-4.4,1.975c-3.659,0-5.446-3.064-7.175-6.028C18.138,4.187,16.571,1.5,13.486,1.5c-3.049,0-4.56,2.644-6.16,5.443a20.394,20.394,0,0,1-2.82,4.127A6.05,6.05,0,0,1,0,13.06v-1c3.25,0,4.808-2.726,6.458-5.613C8.129,3.523,9.857.5,13.486.5c3.659,0,5.446,3.064,7.175,6.028,1.659,2.845,3.227,5.532,6.311,5.532,3.1,0,4.7-2.711,6.4-5.582C35.1,3.539,36.894.5,40.459.5c3.659,0,5.446,3.064,7.175,6.028,1.659,2.845,3.227,5.532,6.311,5.532Z" transform="translate(0 -1)"/></g></g></svg>