<svg xmlns="http://www.w3.org/2000/svg" width="11.789" height="11.789" viewBox="0 0 11.789 11.789"><g transform="translate(-1265.105 -57.73)"><path d="M13.827,8.881A5.406,5.406,0,1,1,7.947,3a4.2,4.2,0,0,0,5.881,5.881Z" transform="translate(1262.567 55.23)" fill="rgba(242,7,203,0)"/><path d="M8.447,14.289l-.184,0A5.906,5.906,0,0,1,7.9,2.5a.5.5,0,0,1,.448.8A3.7,3.7,0,0,0,13.53,8.478a.5.5,0,0,1,.8.448,5.906,5.906,0,0,1-5.878,5.363ZM6.981,3.7a4.907,4.907,0,1,0,6.148,6.147A4.706,4.706,0,0,1,6.981,3.7Z" transform="translate(1262.567 55.23)" fill="#fff"/></g></svg>