<svg xmlns="http://www.w3.org/2000/svg" width="10.845" height="15.101" viewBox="0 0 10.845 15.101"><g transform="translate(-1449 -268.899)"><path d="M5.376-3.52c-.535.691-1.313,1.76-2.1,3C1.83,1.755,1,3.613,1,4.577a4.423,4.423,0,0,0,8.845,0c0-1.394-1.658-4.388-4.47-8.1M5.418-5.1a.005.005,0,0,1,0,0c.091.146,5.423,6.681,5.423,9.676A5.423,5.423,0,0,1,0,4.577C0,1.614,5.219-5.1,5.418-5.1Z" transform="translate(1449 274)" fill="#fff"/><path d="M1.745,1.632A3.206,3.206,0,0,1-.339.928L.339.192s-.356-.114,0,0A2.607,2.607,0,0,0,1.745.632a2.215,2.215,0,0,0,1.5-.919.5.5,0,0,1,.7-.122.5.5,0,0,1,.124.694A3.19,3.19,0,0,1,1.745,1.632Z" transform="matrix(0.839, -0.545, 0.545, 0.839, 1454.46, 280.816)" fill="#fff"/></g></svg>